<mxfile host="app.diagrams.net" modified="2024-03-05T04:32:31.716Z" agent="Mozilla/5.0 (Windows NT 10.0; Win64; x64) AppleWebKit/537.36 (KHTML, like Gecko) Chrome/122.0.0.0 Safari/537.36 Edg/122.0.0.0" version="24.0.1" etag="O-8RmmlTLhLnr2TXDkvG" type="github">
  <diagram name="หน้า-1" id="v1nfsjfzHTgpNxmAIthh">
    <mxGraphModel>
      <root>
        <mxCell id="0" />
        <mxCell id="1" parent="0" />
      </root>
    </mxGraphModel>
  </diagram>
</mxfile>
